<?xml version="1.0" encoding="UTF-8" standalone="no"?>
<svg
   version="1.2"
   viewBox="0 0 1024 1024"
   width="1024"
   height="1024"
   id="svg1"
   sodipodi:docname="GF Logo w_o llc.svg"
   inkscape:version="1.4.2 (f4327f4, 2025-05-13)"
   xmlns:inkscape="http://www.inkscape.org/namespaces/inkscape"
   xmlns:sodipodi="http://sodipodi.sourceforge.net/DTD/sodipodi-0.dtd"
   xmlns="http://www.w3.org/2000/svg"
   xmlns:svg="http://www.w3.org/2000/svg">
  <defs
     id="defs1" />
  <sodipodi:namedview
     id="namedview1"
     pagecolor="#ffffff"
     bordercolor="#000000"
     borderopacity="0.25"
     inkscape:showpageshadow="2"
     inkscape:pageopacity="0.0"
     inkscape:pagecheckerboard="0"
     inkscape:deskcolor="#d1d1d1"
     showguides="false"
     inkscape:zoom="0.53378276"
     inkscape:cx="288.50688"
     inkscape:cy="564.83653"
     inkscape:window-width="1920"
     inkscape:window-height="991"
     inkscape:window-x="-9"
     inkscape:window-y="-9"
     inkscape:window-maximized="1"
     inkscape:current-layer="svg1" />
  <style
     id="style1">
		.s0 { opacity: .99;fill: #113150 } 
	</style>
  <path
     id="Path 0"
     fill-rule="evenodd"
     class="s0"
     d="m 872.62,153.5 c -0.43,4.4 -1.46,11.38 -2.3,15.5 -0.83,4.13 -2.56,9.53 -3.83,12 -1.27,2.47 -3.81,5.93 -5.65,7.69 -1.84,1.75 -5.36,4.06 -7.84,5.13 -2.48,1.07 -7.99,2.68 -12.25,3.56 -4.26,0.89 -9.44,1.61 -11.5,1.59 -2.06,-0.01 -3.52,0.22 -3.25,0.53 0.27,0.3 4.1,0.98 8.5,1.5 4.4,0.52 11.11,1.97 14.92,3.22 4.75,1.57 8.24,3.53 11.16,6.28 2.34,2.2 5.14,6.03 6.22,8.5 1.09,2.47 2.71,8.32 3.6,13 0.89,4.68 1.62,10.64 1.61,13.25 0,2.61 0.33,4.75 0.74,4.76 0.41,0 1.05,-3.71 1.42,-8.25 0.37,-4.54 1.43,-11.19 2.35,-14.76 0.92,-3.57 2.26,-7.63 2.98,-9 0.71,-1.38 2.92,-4.19 4.9,-6.25 1.98,-2.06 5.06,-4.49 6.85,-5.39 1.79,-0.9 5.61,-2.25 8.5,-3 2.89,-0.75 7.69,-1.7 10.67,-2.11 2.99,-0.41 5.24,-1.09 5,-1.5 -0.23,-0.41 -2.56,-0.76 -5.17,-0.76 -2.61,-0.01 -7,-0.61 -9.75,-1.35 -2.75,-0.73 -6.8,-2.25 -9,-3.36 -2.2,-1.11 -5.54,-3.77 -7.41,-5.9 -1.88,-2.13 -4.18,-5.68 -5.11,-7.88 -0.94,-2.2 -2.05,-5.57 -2.48,-7.5 -0.42,-1.93 -1.3,-8.9 -1.94,-15.5 l -1.18,-12 z M 753.76,73.52 c -0.69982,0.777158 -5.14624,4.983713 -23.5,23.97 -7.38464,7.63914 -16.39351,16.22636 -23.9,22.51 -3.04,2.47 -6.53,5.4 -7.74,6.5 -1.22,1.1 -3.99,3.33 -6.16,4.95 -2.18,1.62 -4.18,3.19 -4.45,3.5 -0.28,0.3 -3.88,3.05 -8,6.1 -4.13,3.06 -9.3,6.88 -11.49,8.5 -2.2,1.62 -9.4,6.42 -16,10.66 -8.56929,4.56203 -12.85618,8.36951 -19.28,12.33 -3.7,2.21 -10.78,6.25 -15.73,8.97 -4.95,2.72 -10.8,5.98 -13,7.25 -2.2,1.27 -5.46,2.97 -7.25,3.77 -1.99846,1.17483 -4.42397,0.17641 -5,2.56 -0.24,1.8 -0.03,1.83 3.5,0.51 2.06,-0.77 5.89,-2.34 8.5,-3.5 7.7032,-0.91236 11.62944,-2.69159 15.9806,-4.68441 9.49118,-4.34695 9.24287,-3.7631 10.51293,-4.98882 C 634.07912,180.8 637.31,179.03 639.51,178.02 c 2.2,-1.02 9.85,-4.62 17,-8.01 7.15,-3.39 18.62,-9.34 25.5,-13.23 6.87,-3.9 16.55,-9.62 21.5,-12.73 4.95,-3.11 14.17,-9.52 20.5,-14.25 6.32,-4.72 13.97,-10.87 17,-13.64 7.39033,-5.93964 8.28971,-8.00914 12.87,-13.41 1.57,-1.79 4.01,-5.5 5.41,-8.25 1.4,-2.75 3.08,-8.15 3.73,-12 0.66,-3.85 0.93,-8.35 0.61,-10 -0.32,-1.65 -1.16,-3.78 -1.85,-4.73 -1.14,-1.55 -1.95,-0.96 -8.02,5.75 z m -58.28,12.24 c -4.11399,4.724966 -8.8885,9.243407 -13.47,14.26 -5.23,5.67 -10.06,10.91 -10.75,11.64 -1.20236,1.28949 8.43286,-8.43999 -6,5.71 -6.41397,6.60919 -2.95427,2.42242 -7.38,7.63 -1.7,1.92 -5.85,6.31 -9.23,9.73 -7.75474,7.75976 -8.25762,8.79035 -15.39,16.03 -4.81,4.81 -12.91,13.14 -18,18.5 -14.15844,14.88166 -5.07943,5.62565 -12.5,12.26 -0.69,0.84 -0.91,1.74 -0.5,2 0.41,0.27 1.31,-0.1 2,-0.81 0.69,-0.7 5.21,-4.19 10.05,-7.75 4.84,-3.55 9.83,-7.14 11.09,-7.96 1.26,-0.82 4,-2.85 6.1,-4.5 2.1,-1.65 6.33,-4.99 9.41,-7.43 3.08,-2.44 7.91,-6.49 10.74,-9 2.83,-2.51 7.22,-6.37 9.75,-8.57 6.99793,-5.94762 7.70769,-7.07269 12.99,-12.5 4.09,-4.12 9.76,-10.42 12.59,-14 2.84,-3.58 6.5,-9.2 8.14,-12.5 2.26,-4.56 2.9,-7.07 2.65,-10.47 l -0.32,-4.46 z m 133.53,0.92 c -0.11,0.45 -0.12,2.39 -0.02,4.31 0.09,1.93 -0.36,6.43 -1,10 -0.65,3.58 -1.99,8.08 -2.98,10 -0.99,1.93 -3.19,4.74 -4.9,6.25 -1.7,1.52 -5.01,3.45 -7.35,4.3 -2.34,0.84 -6.89,1.86 -10.11,2.25 -3.22,0.39 -6,0.93 -6.17,1.2 -0.17,0.28 2.92,0.79 6.86,1.15 3.94,0.35 8.74,1.31 10.67,2.13 1.92,0.82 4.86,2.78 6.52,4.35 1.66,1.58 4,4.9 5.2,7.37 1.49,3.07 2.44,7.58 2.98,14.17 0.44,5.31 1.02,9.52 1.3,9.35 0.27,-0.17 0.79,-4.07 1.14,-8.66 0.39,-5.08 1.49,-10.32 2.8,-13.36 1.19,-2.75 3.38,-6.28 4.86,-7.84 1.49,-1.56 4.39,-3.7 6.45,-4.75 2.06,-1.05 6.23,-2.24 9.26,-2.66 3.03,-0.41 5.51,-1.08 5.5,-1.5 -0.01,-0.41 -1.47,-0.74 -3.26,-0.74 -1.79,0.01 -5.61,-0.67 -8.5,-1.5 -3.68,-1.05 -6.53,-2.79 -9.5,-5.8 -2.55,-2.57 -4.8,-6.07 -5.62,-8.75 -0.76,-2.45 -1.49,-8.18 -1.64,-12.74 -0.15,-4.55 -0.73,-8.51 -1.28,-8.8 -0.55,-0.3 -1.1,-0.17 -1.21,0.27 z m -63,59.8 c -4.13,1.32 -10.88,3.52 -15,4.88 -4.13,1.37 -12.9,4.13 -19.5,6.14 -6.6,2.01 -15.83,4.93 -20.5,6.5 -4.68,1.56 -13.9,4.42 -20.5,6.37 -6.6,1.94 -16.73,4.9 -22.5,6.57 -5.78,1.67 -14.1,4.16 -18.5,5.52 -4.4,1.37 -13.85,4.25 -21,6.42 -7.15,2.16 -17.73,5.38 -23.5,7.16 -5.78,1.77 -10.93,3.62 -11.45,4.09 -0.58,0.53 -0.38,0.91 0.5,0.98 0.8,0.07 1.9,0.01 2.45,-0.12 0.55,-0.14 11.57,-0.87 24.5,-1.63 12.92,-0.77 34.07,-1.42 47,-1.46 12.92,-0.04 30.02,0.44 38,1.06 7.97,0.61 20.8,1.99 28.5,3.06 7.7,1.06 16.25,2.39 19,2.95 2.75,0.56 9.5,1.94 15,3.08 5.5,1.14 11.46,1.81 13.25,1.5 1.79,-0.3 4.15,-1.46 5.25,-2.56 1.15,-1.15 2.02,-3.38 2.04,-5.25 0.02,-1.78 -0.76,-4.2 -1.75,-5.36 -0.98,-1.17 -4.72,-3.31 -8.29,-4.77 -3.58,-1.45 -10.78,-3.55 -16,-4.65 -5.23,-1.1 -16.93,-2.93 -26,-4.06 -9.08,-1.13 -16.73,-2.25 -17,-2.51 -0.28,-0.25 0.74,-0.44 2.25,-0.42 1.51,0.01 9.16,-1.34 17,-3.01 7.84,-1.67 18.52,-3.97 23.75,-5.12 5.22,-1.14 12.6,-3.03 16.4,-4.21 3.79,-1.18 7.84,-3.08 9,-4.24 1.15,-1.15 2.4,-3.4 2.77,-5 0.36,-1.59 0.46,-4.02 0.22,-5.4 -0.24,-1.37 -1.81,-3.85 -3.49,-5.5 -2.59,-2.54 -3.91,-3.03 -8.73,-3.2 -3.71,-0.13 -8.26,0.63 -13.17,2.19 z m -295,4.57 c -4.13,0.51 -12.9,1.83 -19.5,2.94 -6.6,1.11 -14.25,2.66 -17,3.46 -2.75,0.79 -9.73,2.85 -15.5,4.56 -5.78,1.72 -15.68,5.21 -22,7.76 -6.33,2.55 -17.13,7.48 -24,10.96 -16.83049,8.64438 -7.56704,3.10907 -21.82,12.24 -4.78,3.01 -12.96,8.69 -18.18,12.62 -5.23,3.92 -10.69,8.21 -12.15,9.52 -1.46,1.31 -5.24,4.63 -8.41,7.38 -3.16,2.75 -8.71,7.93 -12.32,11.5 -7.4139,7.60745 -10.1766,10.7803 -16.22,17.75 -2.8,3.17 -6.06,7.08 -7.25,8.69 l -2.15,2.94 c 6.97,-1.04 14.62,-1.85 21.5,-2.48 l 12.5,-1.14 c 7.34196,-6.32684 12.47785,-12.20322 16.79,-17.01 1.26,-1.23 5.76,-5.06 10,-8.5 11.04179,-8.38552 7.32842,-6.74833 21.47,-16.21 7.01,-4.66 17.20419,-10.94775 22.74,-13.83 7.38925,-3.84725 12.69099,-6.5115 19,-9.35 3.85,-1.68 11.27,-4.62 16.5,-6.52 5.22,-1.91 14.45,-4.8 20.5,-6.43 6.05,-1.62 15.27,-3.81 20.5,-4.86 5.22,-1.05 14.9,-2.41 21.5,-3.02 6.6,-0.62 19.2,-1.04 28,-0.95 8.8,0.09 20.27,0.55 25.5,1.01 8.08,0.72 10.47,0.56 16,-1.05 3.57,-1.05 12.88,-3.85 20.69,-6.22 7.8,-2.37 13.95,-4.54 13.66,-4.82 -0.29,-0.27 -3.75,-1.33 -7.69,-2.34 -3.94,-1.01 -10.87,-2.7 -15.41,-3.75 -4.54,-1.05 -13.09,-2.63 -19,-3.51 -6.94,-1.03 -19.62,-1.72 -35.75,-1.93 -13.75,-0.18 -28.38,0.08 -32.5,0.59 z m 103.63,33.69 c -0.95,0.97 -2.34,2.54 -3.09,3.5 -0.99,1.26 -5.73,2.55 -16.71,4.57 -8.43,1.55 -15.89,3.13 -16.58,3.5 -0.69,0.38 -1.65,1.7 -2.13,2.93 -0.6,1.53 -3.24,3.24 -8.25,5.34 -5.13,2.15 -7.45,3.67 -7.65,5 -0.15,1.05 -1.05,2.42 -2,3.04 -0.95,0.61 -7.12,2.53 -13.72,4.26 -6.6,1.72 -16.5,4.49 -22,6.13 -5.5,1.65 -14.95,4.55 -21,6.44 -6.05,1.9 -16.18,5.01 -22.5,6.92 -6.33,1.91 -15.55,4.6 -20.5,5.97 -4.95,1.37 -16.2,4.61 -25,7.2 -8.8,2.59 -16.45,4.81 -17,4.93 -0.55,0.12 -1.68,0.5 -2.5,0.83 -0.83,0.33 -4.43,1.34 -8,2.24 -3.58,0.89 -10.33,2.91 -15,4.48 -4.68,1.57 -13,4.05 -18.5,5.5 -5.5,1.45 -10.68,2.72 -11.5,2.81 -0.83,0.09 -1.73,0.42 -2,0.74 -0.28,0.31 -3.43,1.37 -7,2.36 -3.58,0.98 -6.61,1.4 -6.73,0.92 -0.13,-0.47 -0.81,-1.61 -1.5,-2.53 -1.09,-1.43 -2.12,-1.54 -7.27,-0.73 -3.3,0.52 -8.58,2.17 -11.72,3.67 -3.82,1.82 -5.73667,2.31333 -5.75,1.48 -0.02,-0.86 -1.34,-1.12 -4.28,-0.85 -2.34,0.22 -9.65,1.36 -16.25,2.52 -6.6,1.17 -15.83,2.82 -20.5,3.68 -4.68,0.85 -16.38,3.5 -26,5.9 -9.63,2.39 -21.1,5.67 -25.5,7.29 -4.4,1.62 -9.8,3.85 -12,4.96 -2.2,1.1 -4.40492,2.88567 -5.25,3.63 -3.30546,2.91139 -2.16259,1.76862 -4.99,4.95 -2.13,2.19 -2.84,4 -3.13,8 -0.31,4.36 0.02,5.65 2.12,8.17 1.37,1.65 3.56,3.55 4.87,4.21 1.31,0.66 4.07,1.9 6.13,2.75 3.53,1.45 3.67,1.68 2.4,3.79 -0.74,1.24 -4.29,7.88 -7.88,14.75 -3.59,6.88 -9.36,17.9 -12.82,24.5 -3.45,6.6 -8.91,17.07 -12.12,23.25 -3.21,6.19 -5.82,12.49 -5.81,14 0.01,1.52 0.95,3.65 2.08,4.75 1.7,1.65 1.9,2.53 1.13,5 -0.63,2.05 -1.86,3.28 -3.83,3.88 -1.6,0.48 -3.91,1.83 -5.13,3 -1.23,1.17 -2.47,3.59 -2.75,5.37 -0.29,1.79 -0.02,4.27 0.6,5.5 0.61,1.24 2.07,3 3.25,3.92 l 2.13,1.66 c -4.42,14.47 -6.67,21.75 -7.85,25.5 -2.03,6.45 -2.05,6.89 -0.4,7.75 1.65,0.87 1.63,1.36 -0.44,8.67 -1.86,6.62 -2.19,10.4 -2.25,25.75 -0.05,16.2 0.18,18.76 2.29,25.5 1.29,4.13 3.76,10.2 5.5,13.5 1.73,3.3 5.86,8.7 9.18,12 3.32,3.3 8.5,7.4 11.5,9.11 3.01,1.71 8.39,4.07 11.97,5.23 3.57,1.17 9.87,2.57 14,3.11 4.85,0.64 12.09,0.66 20.5,0.05 7.35,-0.53 17.56,-2.06 23.5,-3.51 5.77,-1.41 13.42,-3.43 17,-4.49 17.59666,-6.00054 -5.35307,1.32472 26,-8.82 8.52,-2.76 21.57,-6.66 29,-8.66 7.42,-2.01 18.45,-4.76 24.5,-6.12 6.05,-1.36 16.17,-3.55 22.5,-4.87 6.32,-1.32 15.1,-3.08 19.5,-3.91 4.4,-0.83 15.87,-2.65 25.5,-4.05 9.62,-1.39 26.27,-3.41 37,-4.5 10.72,-1.08 28.95,-2.5 40.5,-3.16 13.5,-0.76 35.46,-0.98 61.5,-0.61 22.27,0.32 49.05,1.25 59.5,2.08 10.45,0.83 25.3,2.22 33,3.09 7.7,0.87 18.95,2.27 25,3.12 6.05,0.84 17.75,2.66 26,4.03 8.25,1.37 21.52,3.81 29.5,5.43 7.97,1.62 17.42,3.58 21,4.36 3.57,0.78 15.27,3.51 26,6.08 10.72,2.57 23.55,5.8 28.5,7.19 4.95,1.39 10.12,2.72 11.5,2.97 1.37,0.25 4.97,1.1 8,1.89 3.02,0.78 6.17,1.43 7,1.43 0.82,0 -0.53,-1.26 -3,-2.8 -2.48,-1.54 -8.89,-5.02 -14.25,-7.73 -5.8,-2.94 -9.74,-5.54 -9.74,-6.44 0,-0.82 0.89,-2.96 1.99,-4.75 2.16028,-5.9577 5.36498,-12.24286 7.94,-18.75 2.81,-7.15 6.88,-19.3 9.06,-27 2.17,-7.7 4.85,-18.72 5.95,-24.5 1.09,-5.77 2.68,-16.12 3.52,-23 0.89,-7.29 1.53,-20.62 1.53,-32 0.01,-11.56 -0.6,-24.18 -1.49,-31 -0.83,-6.32 -2.43,-16.45 -3.57,-22.5 -1.14,-6.05 -3.89,-17.07 -6.11,-24.5 -2.22,-7.42 -5.82,-18 -7.99,-23.5 -2.18,-5.5 -5.97,-14.05 -8.42,-19 -4.37,-8.82 -4.6,-9.09 -12.19,-13.65 -4.25,-2.56 -12.79,-7.17 -18.98,-10.25 -6.19,-3.08 -11.59,-5.37 -12,-5.1 -0.41,0.27 -0.01,1.28 0.89,2.25 0.91,0.96 4.24,6.03 7.4,11.25 3.16,5.23 8.76,15.58 12.45,23 3.69,7.43 8.57,18.45 10.83,24.5 2.27,6.05 4.81,13.7 5.65,17 0.84,3.3 1.74,6.9 1.99,8 0.25,1.1 1.15,4.48 1.99,7.5 0.85,3.03 2.53,11.8 3.75,19.5 1.84,11.66 2.19,17.86 2.12,37 -0.06,15.7 -0.61,26.5 -1.73,34 -0.89,6.05 -2.78,16.18 -4.19,22.5 -1.41,6.33 -4.6,17.58 -7.09,25 -2.5,7.43 -5.57,15.75 -6.83,18.5 -1.26,2.75 -3.74,8.38 -5.51,12.5 -1.76,4.13 -3.61,8.07 -4.09,8.75 -0.68,0.97 -2.29,0.68 -7.13,-1.28 -3.44,-1.39 -12.1,-4.14 -19.25,-6.12 -7.15,-1.97 -17.28,-4.62 -22.5,-5.9 -5.23,-1.27 -10.63,-2.45 -12,-2.63 l -2.5,-0.32 v -69 l 57,-0.45 -83.56,-69.55 -0.64728,-75.32911 -51.34272,0.32911 0.05,31.5 -96.5,-78.98 -230.76,190.78 c -1.12843,0.93292 3.83,1.28 26.51,1.25 l 27.75,-0.05 c 0,65.71 -0.12,68 -1.75,68.02 -0.96,0 -7.15,1.31 -13.75,2.89 -6.6,1.59 -18.3,4.55 -26,6.58 -7.7,2.03 -17.15,4.74 -21,6.01 -3.85,1.27 -7.34,2.13 -7.75,1.91 -0.41,-0.22 -2.61,-4.34 -4.88,-9.16 -2.27,-4.81 -5.9,-13.47 -8.08,-19.25 -2.17,-5.77 -4.85,-13.65 -5.94,-17.5 -1.1,-3.85 -2.64,-9.25 -3.43,-12 -0.8,-2.75 -1.78,-6.51 -2.18,-8.36 -0.41,-1.86 -1.08,-3.54 -1.49,-3.75 -0.41,-0.21 -3.11,0.06 -6,0.61 -2.89,0.55 -7.73,1.18 -10.75,1.41 -5.09,0.38 -5.48,0.59 -5.19,2.75 0.18,1.29 1.61,7.52 3.19,13.84 1.57,6.33 4.63,16.9 6.79,23.5 2.16,6.6 6.24,16.84 9.07,22.75 2.96,6.2 4.82,11.28 4.39,11.99 -0.5,0.82667 -0.33333,0.99333 0.5,0.5 0.69,-0.4 1.26,-0.4 1.27,0.01 0,0.42 -4.16,2.01 -9.25,3.55 -5.1,1.53 -13.1,3.71 -17.77,4.84 -5.01,1.21 -13.64,2.27 -21,2.58 -9.79,0.41 -13.91,0.17 -19,-1.15 -3.58,-0.92 -8.75,-2.98 -11.5,-4.56 -2.75,-1.59 -7.09,-5.06 -9.65,-7.7 -2.55,-2.64 -6.02,-7.51 -7.7,-10.81 -1.68,-3.3 -3.57,-8.25 -4.2,-11 -0.63,-2.75 -1.13,-9.5 -1.12,-15 0.01,-5.5 0.76,-14.05 1.66,-19 0.91,-4.95 1.84,-9.33 2.08,-9.75 0.23,-0.41 1.33,-0.3 2.43,0.25 1.8,0.91 2.15,0.49 3.55,-4.25 0.86,-2.88 1.86,-5.7 2.22,-6.25 0.37,-0.55 0.81,-1.9 0.97,-3 0.17,-1.1 1.14,-4.47 2.17,-7.5 1.02,-3.02 2.14,-6.96 2.48,-8.75 0.33,-1.78 0.72,-3.26 0.86,-3.27 0.14,-0.01 6.32,2.01 13.75,4.48 7.42,2.48 16.87,4.95 21,5.49 4.12,0.55 11.55,1 16.5,1.02 4.95,0.01 10.8,-0.46 13,-1.06 2.2,-0.59 6.02,-2.27 8.5,-3.72 6.30932,-3.5032 4.8839,-3.13547 8,-7.69 1.96,-2.66667 3.58,-6.83333 4.86,-12.5 1.05,-4.67 2.92,-13.45 4.15,-19.5 1.23,-6.05 3.51,-16.85 5.08,-24 1.57,-7.15 4.69,-20.87 6.95,-30.5 2.25,-9.62 4.33,-18.85 4.63,-20.5 0.29,-1.65 1.46,-5.47 2.59,-8.5 1.13,-3.02 3.45,-7.23 5.15,-9.34 1.7,-2.12 4.44,-5.48 6.09,-7.46 1.65,-1.99 3.52,-5.21 4.15,-7.16 1.02,-3.15 1.57,-3.57 5,-3.83 2.12,-0.16 6.1,-0.98 8.85,-1.84 7.40582,-1.63131 4.49561,-0.30788 9.55,-3.62 1.62,-0.96 3,-2.31 3.06,-3 0.05,-0.68 0.17,-2.07 0.25,-3.08 0.1,-1.35 2.03,-2.48 7.14,-4.2 3.85,-1.3 11.5,-3.49 17,-4.87 5.5,-1.37 14.72,-3.9 20.5,-5.61 5.77,-1.72 15.9,-4.7 22.5,-6.63 6.6,-1.92 16.27,-4.81 21.5,-6.4 5.22,-1.59 15.12,-4.53 22,-6.53 6.87,-1.99 17,-4.92 22.5,-6.51 5.5,-1.58 16.97,-4.98 25.5,-7.54 8.52,-2.57 20.67,-6.12 27,-7.9 6.32,-1.79 14.54,-4.2 18.25,-5.36 5.03,-1.58 8.08,-1.96 12,-1.49 2.89,0.34 7.72,0.11 10.75,-0.52 3.76,-0.77 5.81,-0.8 6.5,-0.1 0.55,0.56 2.01,1.02 3.25,1.01 1.24,-0.01 8.66,-1.62 16.5,-3.58 7.84,-1.96 14.92,-3.95 15.75,-4.41 0.93,-0.53 2.64,-0.28 4.5,0.66 1.65,0.83 4.01,1.24 5.25,0.91 1.24,-0.33 2.92,-1.27 3.75,-2.1 0.99,-0.98 1.5,-3.46 1.49,-7.25 0,-3.16 -0.96,-9.12 -2.12,-13.25 -1.16,-4.12 -3.18,-9.63 -4.49,-12.25 -1.31,-2.61 -3.39,-5.43 -4.63,-6.25 -1.24,-0.83 -3.41,-1.51 -4.82,-1.5 -1.42,0 -3.35,0.79 -4.3,1.75 z M 245.01,340.19 c 0.77,-0.66 1.98,-1.2 2.7,-1.2 0.71,0 1.52,0.45 1.8,1 0.27,0.55 -0.21,4.94 -1.08,9.75 -0.87,4.82 -2.23,11.23 -3.03,14.25 -0.8,3.03 -3.05,14.95 -5.02,26.5 -1.96,11.55 -3.67,22.13 -3.81,23.5 -0.13,1.38 -0.52,3.4 -0.86,4.5 -0.35,1.1 -0.89,3.58 -1.22,5.5 -0.32,1.93 -1.04,5.3 -1.6,7.5 -0.56,2.2 -2.22,5.77 -3.7,7.92 -1.22162,3.73309 -7.14,6.65 -9.64,7.33 -2.5,0.69 -6.45,1.24 -8.79,1.23 -2.34,-0.01 -6.28,-0.47 -8.75,-1.01 -2.48,-0.54 -7.7003,-2.1356 -11.69,-3.23 -4.3245,-1.18624 -9.13334,-2.78939 -12.06,-4.16 -9.42345,-5.1647 -3.05707,-1.0357 -11,-6.57 -3.03429,-2.11417 -1.40265,-5.16664 0.75,-6.76 0.32955,-0.24393 2.1,-0.75 9.36,-0.75 l 6.41,-16.5 c 3.53,-9.07 8.45,-21.67 10.93,-28 2.48,-6.32 6.02,-14.65 7.88,-18.5 1.85,-3.85 4.19,-7.9 5.19,-9 1,-1.1 3.82,-3.62 6.27,-5.6 2.45,-1.98 5.92,-4.12 7.71,-4.75 3.06,-1.08 3.24,-1.01 3.08,1.1 -0.09,1.24 -1.16,3.38 -2.37,4.75 -1.21,1.38 -2.92,3.63 -3.79,5 -0.88,1.38 -2.48,5.2 -3.57,8.5 -1.08,3.3 -2.65,10.05 -3.49,15 -0.83,4.95 -2.52,17.55 -3.74,28 -1.96,16.84 -2.05,19.39 -0.79,22.43 0.78,1.88 2.77,4.44 4.42,5.68 1.65,1.25 4.69,2.97 6.75,3.83 2.34,0.98 3.94,1.19 4.25,0.56 0.27,-0.55 -0.26,-2.68 -1.19,-4.75 -0.94,-2.06 -1.68,-5.77 -1.66,-8.25 0.02,-2.47 0.16,-6.07 0.31,-8 0.15,-1.92 1.38,-8 2.72,-13.5 1.34,-5.5 2.54,-10.45 2.66,-11 0.12,-0.55 1.72,-6.4 3.57,-13 4.8421,-12.75411 3.93323,-14.05156 6.38,-19.5 0.71,-1.37 2.06,-4.63 3,-7.25 3.37279,-6.41732 3.47481,-9.08063 6.71,-12.55 z M 476.06647,379.55721 507.51,379.49 v 33 l -31.5,0.5 z m 41.17515,0.1097 30.51838,0.0931 0.33603,32.81279 L 517.51,412.49 Z M 476.01,423.99 l 30.96329,0.11709 0.30253,33.85127 L 476.01,457.99 Z m 40.36456,0.11709 32.63544,-0.11709 -0.53582,33.56962 -31.54962,0.0475 z M 601.44,205.06 c -0.8,0.31 4.96,1.59 12.8,2.84 7.85,1.25 21.02,3.58 29.27,5.18 8.25,1.6 21.3,4.74 29,6.98 7.7,2.24 18.95,5.88 25,8.09 6.05,2.21 14.15,5.37 18,7.04 3.85,1.66 12.18,5.62 18.5,8.78 6.33,3.16 16.79,8.74 23.25,12.39 5.39393,3.81472 10.49918,6.63021 16,9.63 1.79,1.1 4.04,2 5,2 0.97,0 2.02,-1 2.35,-2.25 0.34,-1.23 0.49,-4.27 0.34,-6.75 -0.15,-2.47 -0.95,-6.3 -1.79,-8.5 -0.84,-2.2 -3.35,-6.38 -5.58,-9.29 -7.77493,-8.23271 -4.94404,-5.87433 -16.07,-10.58 -4.4,-1.91 -9.35,-3.81 -11,-4.21 -1.65,-0.41 -4.57,-1.43 -6.5,-2.27 -1.92,-0.84 -3.72,-1.58 -4,-1.65 -0.27,-0.07 -3.65,-1.08 -7.5,-2.26 -3.85,-1.17 -11.27,-3.3 -16.5,-4.72 -5.22,-1.43 -14.45,-3.48 -20.5,-4.57 -6.05,-1.09 -16.4,-2.69 -23,-3.56 -6.6,-0.86 -24.06,-1.87 -38.8,-2.23 -14.74,-0.36 -27.46,-0.4 -28.27,-0.09 z m 9.54,11.18 c -0.02,0.14 2.12,1.1 4.75,2.13 2.63,1.03 7.48,3.09 10.78,4.58 3.3,1.49 9.38,4.23 13.5,6.11 4.13,1.87 11.33,5.52 16,8.11 7.77011,4.65705 10.96651,6.48041 17.5,10.32 9.66203,5.43978 7.26088,4.07739 21,14.14 4.95,3.7 11.25,8.6 14,10.9 2.75,2.31 6.02,4.7 7.25,5.33 1.82,0.91 2.35,0.84 2.75,-0.37 0.28,-0.82 0.2,-2.73 -0.17,-4.25 -0.37,-1.51 -1.61,-4.32 -2.75,-6.24 -1.14,-1.92 -4.33,-5.92 -7.08,-8.89 -4.41403,-4.68813 -6.12571,-6.34862 -11.5,-10.19 -3.02,-2.21 -8.65,-5.76 -12.5,-7.88 -3.85,-2.12 -11.72,-5.87 -17.5,-8.35 -5.77,-2.47 -14.55,-5.68 -19.5,-7.12 -4.95,-1.44 -14.85,-3.96 -22,-5.6 -7.15,-1.64 -13.33,-2.99 -13.75,-2.98 -0.41,0 -0.76,0.12 -0.78,0.25 z m 209.03,11 c 0,1.79 -0.84,5.5 -1.86,8.25 -1.46,3.94 -2.9,5.7 -6.75,8.29 -3.1,2.09 -6.07,3.27 -8.14,3.25 -1.78,-0.02 -3.47,0.41 -3.75,0.96 -0.27,0.55 0.74,1.01 2.25,1.03 1.52,0.01 4.78,0.96 7.25,2.1 2.48,1.15 5.18,2.8 6,3.66 0.83,0.87 2.3,3.41 3.28,5.65 0.98,2.23 1.77,5.3 1.75,6.81 -0.01,1.52 0.42,2.53 0.97,2.25 0.55,-0.27 1,-1.62 1,-3 0,-1.37 0.67,-4.18 1.48,-6.25 0.81,-2.06 3.13,-5.1 5.14,-6.75 2.51,-2.06 5.57,-3.34 9.77,-4.1 5.5,-0.98 5.81,-1.16 3.11,-1.79 -1.65,-0.38 -4.57,-1.1 -6.5,-1.59 -1.92,-0.5 -4.82,-1.94 -6.43,-3.21 -1.61,-1.27 -3.74,-4.11 -4.73,-6.31 -0.98,-2.2 -1.8,-5.91 -1.81,-8.25 -0.02,-2.33 -0.48,-4.25 -1.03,-4.25 -0.55,0 -1,1.47 -1,3.25 z M 410.51,557.4 c -4.4,0.73 -10.7,2.13 -14,3.1 -3.3,0.96 -9.37,3.31 -13.5,5.22 -4.12,1.9 -11.3778,5.64019 -15.5,9.11 -12.8519,10.81792 -16.92863,14.42772 -25.12,26.16 -1.71,2.48 -4.16,6.53 -5.45,9 -1.28,2.48 -2.4,4.73 -2.47,5 -0.08,0.28 -0.88,2.19 -1.8,4.25 -0.91,2.07 -2.61,7.24 -3.78,11.5 -1.17,4.27 -2.63,11.58 -3.25,16.25 -0.66,4.96 -0.88,13.71 -0.53,21 0.39,8.3 1.37,15.36 2.9,21 1.27,4.68 3.63,11.43 5.23,15 1.61,3.58 3.57,7.74 4.35,9.25 3.34825,6.07805 3.81117,6.92477 9.02,13.75 2.33,3.03 6.18,7.33 8.57,9.57 2.38,2.23 6.13,5.58 8.33,7.44 8.57136,6.86213 8.48163,7.0021 17.5,10.76 3.58,1.68 10.33,4.2 15,5.6 4.68,1.4 11.65,3.07 15.5,3.72 4.38,0.74 13,1 23,0.69 14.11,-0.43 17.24,-0.85 26.5,-3.58 5.78,-1.71 12.3,-3.82 14.5,-4.71 2.2,-0.88 6.7,-3 10,-4.71 3.3,-1.71 8.7,-4.93 12,-7.17 7.60776,-4.94929 11.2684,-7.28002 15.49,-12.11 1.94,-1.93 2,-3.33 2.03,-44.5 l 0.03,-42.5 h -87.14 v 39 l 44.09,0.5 v 27 c -5.03,2.94 -8.75,4.95 -11.5,6.36 -2.75,1.41 -7.92,3.38 -11.5,4.36 -4.67,1.28 -9.86,1.76 -18.5,1.7 -10.07,-0.06 -13.12,-0.47 -19,-2.55 -3.85,-1.35 -9.7,-4.21 -13,-6.35 -5.99103,-3.88509 -15.5558,-14.79226 -18.32,-19.52 -1.45,-2.47 -3.61,-7.2 -4.82,-10.5 -1.2,-3.3 -2.73,-10.05 -3.4,-15 -0.98,-7.17 -0.97,-10.62 0.05,-17 0.7,-4.4 2.4,-11.15 3.78,-15 1.38,-3.85 3.63,-9.02 5.01,-11.5 3.82649,-5.1463 9.7653,-13.37777 13.95,-17.04 2.62,-2.22 7.45,-5.38 10.75,-7.01 3.3,-1.64 7.35,-3.18 9,-3.43 1.65,-0.25 4.8,-0.91 7,-1.46 2.2,-0.56 6.03,-1 8.5,-1 2.48,0.01 8.1,0.67 12.5,1.47 4.4,0.8 10.03,2.4 12.5,3.55 2.48,1.16 6.3,3.05 8.5,4.22 2.2,1.17 4.85,2.82 5.87,3.67 1.03,0.84 3.41,3.11 5.28,5.03 l 3.4,3.5 c 2.7561,-2.85499 -7.21642,7.93115 17.73,-16.63 2.6,-2.55 6.88,-6.6 9.51,-9 2.64,-2.4 4.79,-4.82 4.79,-5.37 -0.01,-0.55 -2.12,-2.8 -4.7,-5 -2.58,-2.2 -6.76,-5.4 -9.28,-7.11 -2.53,-1.71 -8.87,-5.27 -14.1,-7.91 -6.02,-3.04 -13.71,-5.87 -21,-7.73 -9.67,-2.46 -13.96,-2.99 -27,-3.3 -10.04,-0.25 -18.31,0.09 -23.5,0.96 z m 141.5,103.59 v 101 l 46.1,-0.5 -0.1,-77.5 h 82 v -42 h -82 v -42 h 97 v -40 h -143 z m -230.93,124.5 c -0.06,0.55 -0.09,15.97 -0.08,34.25 l 0.01,33.25 c 33.33,0 43,-0.22 43,-0.5 v -6.5 -6 h -29 c 0.02,-42.23 -0.21,-54.72 -0.51,-55 -0.3,-0.27 -0.53,0.07 -0.51,0.75 0.01,0.87 -1.83,1.25 -5.98,1.25 -3.91,0 -6.14,-0.43 -6.42,-1.25 -0.23,-0.68 -0.46,-0.8 -0.51,-0.25 z m 356.97,0.5 c -0.07,0.83 -0.1,10.39 -0.08,21.25 0.02,10.87 -0.2858,19.96922 -0.46,19.75 l -31.78558,-40 H 632.51 l 0.5,66 h 13.75 c 0.42,0.01 0.64,-9.11 0.51,-20.25 l -0.25,-20.25 29.32,40.11471 c 0.91,1.39 2.7,0.51529 8.02,0.67529 l 6.84,0.21 c -0.12,-52.7 -0.4,-66.7711 -0.7,-67.54787 z m -412.54,2.08 c -2.75,1.1 -6.98,3.66 -9.41,5.71 -2.84,2.39 -5.38,5.85 -7.15,9.71 -1.5,3.3 -3.12,7.35 -3.6,9 -0.49,1.65 -0.53,6.72 -0.11,11.25 0.53,5.67 1.55,9.74 3.25,13 1.36,2.62 3.27,5.67 4.25,6.79 0.97,1.12 3.8,3.41 6.27,5.09 2.48,1.68 6.08,3.59 8,4.23 1.93,0.65 7.22,1.17 11.75,1.16 5.66,-0.01 9.9,-0.63 13.5,-1.96 2.89,-1.06 7.17,-3.76 9.5,-6 l 4.25,-4.06 c -7.36,-6.96 -9.83,-8.99 -10.25,-8.99 -0.41,0 -2.88,1.62 -5.5,3.61 -4.51,3.43 -5.07,3.59 -11.25,3.23 -5.25,-0.3 -7.3,-0.95 -10.69,-3.36 -2.3,-1.64 -5.1,-4.79 -6.22,-6.99 -1.24,-2.44 -2.04,-5.95 -2.04,-9 0,-2.75 0.81,-6.8 1.8,-9 1,-2.2 3.13,-5.14 4.73,-6.54 1.61,-1.4 4.72,-3.15 6.92,-3.88 2.2,-0.74 6.08,-1.17 8.63,-0.96 3.33,0.28 5.78,1.29 8.75,3.63 3.99,3.15 4.2,3.2 6.37,1.53 1.24,-0.94 3.6,-3 5.25,-4.58 l 3,-2.87 c -6.2,-6 -10.36,-8.67 -13.25,-9.79 -3.82,-1.48 -7.49,-2.02 -13.5,-1.99 -5.79,0.03 -9.73,0.64 -13.25,2.03 z m 112.65,-1.08 c -0.35,0.28 -0.65,15.24 -0.65,33.25 0,18.02 0.34,32.75 0.75,32.75 0.42,0 11.22,0.02 24,0.04 l 23.25,0.04 -0.5,-14.08 h -32 l 0.5,-11.5 27,-0.36 v -13.3 l -27,-0.34 v -12 l 30.5,-0.5 v -14 c -35.02,-0.38 -45.49,-0.27 -45.85,0 z m 82.33,4.5 c -1.21,2.75 -2.77,6.8 -3.47,9 -0.7,2.2 -1.54,4.45 -1.87,5 -0.33,0.55 -0.65,1.23 -0.71,1.5 -0.05,0.28 -0.65,1.85 -1.33,3.5 -0.67,1.65 -3.7,9.3 -6.71,17 -3.02,7.7 -6.26,15.67 -7.19,17.72 -0.93,2.04 -1.92,3.55 -2.2,3.34 -0.27,-0.2 -0.5,0.76 -0.5,2.13 0,2.47 0.1,2.5 8.25,2.41 4.54,-0.06 8.7,-0.1 9.25,-0.1 0.55,0 1,-0.67 1,-1.5 0,-0.82 0.9,-3.52 2,-6 l 2,-4.5 25.5,-0.06 c 2.88,6.64 4.06,9.46 4.48,10.56 0.68,1.81 1.56,1.98 9.14,1.79 6.22,-0.17 8.31,-0.55 8.09,-1.5 -0.17,-0.71 -0.91,-2.64 -1.65,-4.29 -0.75,-1.65 -3.24,-7.72 -5.55,-13.5 -2.3,-5.77 -5.88,-14.55 -7.95,-19.5 -2.07,-4.95 -5.52,-13.15 -7.66,-18.22 l -3.9,-9.23 -16.83,-0.55 z m 6.34,23.77 c 2.02,-5.07 3.95,-8.9 4.28,-8.5 0.33,0.4 2.08,4.56 3.9,9.23 1.82,4.68 3.7,8.95 4.17,9.5 0.48,0.55 0.86,1.34 0.85,1.75 -0.01,0.42 -4.07,0.75 -9.02,0.75 -8.12,0 -8.94,-0.17 -8.43,-1.75 0.31,-0.96 2.22,-5.9 4.25,-10.98 z m 52.18,-28.02 v 33.25 32.5 l 14.24,0.5 -0.34,-42 c 5.43879,10.33038 12.6584,17.14773 19.8,26.5 l 10.98,14.5 c 10.34,0.78 13.67,0.89 14.08,0.75 0.41,-0.13 0.63,-15.1 0.49,-33.25 l -0.25,-33 c -10.07,0 -13.28,-0.11 -13.62,-0.25 L 564.08147,829.14413 526.43,786.99 c -4.08,-0.27 -7.42,-0.16 -7.42,0.25 z m 79,32 v 33.5 c 0,0.42 3.38,0.75 7.52,0.75 h 7.51 c 0.37,-51.53 0.25,-66.52 -0.03,-66.55 -0.27,-0.02 -3.76,-0.13 -7.75,-0.25 l -7.25,-0.2 z m 130.5,-31.2 c -2.75,1.07 -7.02,3.67 -9.5,5.79 -2.83,2.42 -5.79,6.41 -7.97,10.75 -3.3,6.56 -3.47,7.43 -3.41,16.91 0.07,9.06 0.35,10.51 2.98,15.4 1.6,2.96 4.93,7.15 7.4,9.3 2.48,2.15 6.86,4.78 9.75,5.85 3.62,1.35 7.81,1.96 13.5,1.97 4.54,0 10.5,-0.67 13.25,-1.5 2.75,-0.82 7.12,-2.97 9.71,-4.76 l 4.72,-3.26 0.57,-29.5 h -29 c -0.27,0 -0.55,2.82 -0.62,6.25 l -0.12,6.25 h 14.74 c 0.49,9.21 0.3,9.61 -2.75,11.17 -1.89,0.97 -5.76,1.71 -9.25,1.75 -4.82,0.07 -6.93,-0.46 -10.75,-2.67 -2.50627,-1.7195 -6.55628,-6.67086 -7.88,-9.5 -1.51,-3.37 -2,-6.05 -1.68,-9.25 0.24,-2.47 1.32,-6.3 2.4,-8.5 2.60014,-2.7427 3.80406,-5.07944 6.7,-7.47 2.49,-1.92 4.67,-2.55 9.71,-2.82 5.95,-0.32 6.97,-0.06 12,3.05 l 5.5,3.4 c 9.21,-7.9 9.83,-8.86 8.93,-10.37 -0.59,-0.98 -3.29,-3.27 -6,-5.09 -2.71,-1.81 -6.5,-3.72 -8.43,-4.24 -1.92,-0.52 -7.1,-0.92 -11.5,-0.9 -5.44,0.03 -9.6,0.67 -13,1.99 z m -464,87.62 c -1.65,0.87 -3.84,2.31 -4.88,3.21 -1.03,0.89 -2.94,3.31 -4.25,5.37 -1.58,2.5 -2.39333,5.33333 -2.44,8.5 -0.06,3.21 0.7,6.21 2.31,9.25 1.32,2.48 3.72,5.27 5.33,6.21 1.61,0.94 6.31,2.56 10.43,3.6 4.13,1.03 8.96,2.63 10.75,3.54 1.79,0.91 3.48,2.1 3.75,2.65 0.28,0.55 0.05,1.9 -0.5,3 -0.55,1.1 -2.57,2.68 -4.5,3.5 -2.81,1.21 -4.44,1.29 -8.25,0.43 -2.61,-0.59 -6.66,-2.39 -9,-4 l -4.25,-2.93 c -6.94,7.37 -8.98,9.95 -9.02,10.5 -0.03,0.55 1.65,2.23 3.73,3.73 2.09,1.5 6.49,3.68 9.79,4.84 4.69,1.66 7.76,2.05 14.08,1.78 6.89,-0.3 8.79,-0.79 12.93,-3.35 3.33,-2.06 5.53,-4.39 7.07,-7.5 1.63,-3.27 2.18,-6 2.03,-10 -0.14,-3.75 -0.9,-6.53 -2.41,-8.75 -1.21,-1.78 -4.11,-4.34 -6.45,-5.69 -2.34,-1.34 -7.4,-3.13 -11.25,-3.97 -3.85,-0.85 -8.24,-2.45 -9.75,-3.56 -1.51,-1.12 -2.75,-2.48 -2.75,-3.03 0,-0.55 1.11,-2.12 2.46,-3.5 1.81,-1.85 3.5,-2.5 6.5,-2.5 2.22,0 5.84,0.9 8.04,2 2.2,1.1 4.23,2.45 4.5,3 0.28,0.55 0.84,1.01 1.25,1.02 0.41,0 1.54,-1.35 2.5,-3 2.39991,-3.35898 2.61786,-4.0375 4.13,-6.02 1.35,-1.34 1.28,-1.72 -0.68,-3.63 -1.21,-1.18 -4.11,-3.09 -6.45,-4.25 -3.38,-1.68 -6.04,-2.11 -13,-2.08 -5.99,0.03 -9.69,0.54 -11.75,1.63 z m 53.66,-0.67 c -0.36,0.28 -0.66,14.55 -0.66,31.72 v 31.21 l 45.36,0.57 0.64,-13.45 -30,-0.55 -0.5,-12.5 h 26 v -11.75 c -0.01,-0.41 -5.75,-0.75 -12.75,-0.75 h -12.75 l -0.5,-11.5 h 29 v -12.5 c 0,-0.27 -9.72,-0.61 -21.59,-0.75 -11.88,-0.13 -21.89,-0.02 -22.25,0.25 z m 64.84,-0.25 v 31.75 c 0,17.33 0.23,31.5 0.5,31.5 h 7.25 l 6.75,0.01 c 0,-20.73 0.15,-21.53 2,-21.84 1.35,-0.23 3,0.9 5.08,3.5 1.7,2.11 5.07,7.07 7.5,11.02 l 4.42,7.19 c 12.93,0.48 16.85,0.4 17.06,0.12 0.21,-0.27 -2.94,-5.22 -7,-11 -4.06,-5.77 -7.66,-11.17 -7.99,-12 -0.41333,-1 0.47333,-2.08 2.66,-3.24 1.8,-0.96 4.4,-3.51 5.77,-5.65 3.47674,-5.05221 1.75773,-1.84505 3.31,-8.11 -0.24,-4.12 -1.06,-9.3 -1.84,-11.5 -0.77,-2.2 -2.43,-4.9 -3.68,-6 -1.26,-1.1 -3.64,-2.65 -5.29,-3.44 -2.07,-0.99 -8.21,-1.62 -19.75,-2 -9.21,-0.31 -16.75,-0.44 -16.75,-0.31 z m 14,13.25 h 7 c 6.56,0 7.16,0.19 9.5,3 1.38,1.65 2.5,3.45 2.5,4 0,0.55 -0.56,2.15 -1.25,3.54 -0.69,1.4 -2.71,3.2 -4.5,4 -1.79,0.81 -5.5,1.46 -13.25,1.46 v -8 z m 46.46,-13 c -0.19,0.28 0.22,1.63 0.93,3 0.7,1.38 3.16,7.68 5.46,14 2.3,6.33 4.61,12.4 5.13,13.5 0.51,1.1 2.56,6.28 4.54,11.5 1.98,5.23 4.58,12.09 5.79,15.25 l 2.19,5.75 c 15.93,0.05 16.01,0.02 16.66,-2.72 0.37,-1.53 2.3,-7.05 4.29,-12.28 2,-5.22 4,-10.4 4.46,-11.5 0.45,-1.1 1.75,-4.47 2.88,-7.5 1.13,-3.02 4.06,-10.67 6.53,-17 2.46,-6.32 4.34,-11.72 4.18,-12 -0.17,-0.27 -3.82,-0.27 -8.11,0 l -7.81,0.5 c -1.98,6.98 -3,9.9 -3.55,11 -0.54,1.1 -2.37,6.28 -4.06,11.5 -1.69,5.23 -3.35,10.18 -3.67,11 -0.33,0.83 -0.71,1.95 -0.83,2.5 -0.13,0.55 -0.88,2.58 -1.67,4.5 l -1.43,3.5 c -4.32,-12.4 -6.9,-19.6 -8.54,-24 -1.63,-4.4 -3.84,-10.25 -4.92,-13 -1.07,-2.75 -1.94,-5.56 -1.93,-6.25 0.01,-0.68 -0.32,-1.27 -0.73,-1.3 -0.41,-0.02 -4.05,-0.13 -8.09,-0.25 -4.04,-0.11 -7.51,0.03 -7.7,0.3 z m 82.54,-0.25 v 31.75 c 0,17.33 0.23,31.5 0.5,31.5 h 7.25 6.75 l -0.5,-63 c -10.85,-0.38 -14,-0.38 -14,-0.25 z m 52.39,2.32 c -3.24,1.69 -7.17,4.28 -8.73,5.75 -1.57,1.48 -4.04,4.93 -5.5,7.68 -2.41,4.54 -2.66,6.02 -2.66,16 0,9.58 0.3,11.58 2.34,15.5 1.28,2.48 3.76,6.01 5.5,7.84 1.74,1.84 5.41,4.54 8.16,6 4.52,2.41 6.01,2.66 15.5,2.63 8.73,-0.04 11.26,-0.41 15,-2.24 2.48,-1.21 6.21,-3.89 8.3,-5.96 2.08,-2.07 3.43,-4.04 3,-4.38 -0.44,-0.33 -2.71,-2.24 -5.05,-4.25 l -4.25,-3.64 c -7.27,5.74 -9.44,6.59 -13.37,6.88 -2.82,0.21 -6.82,-0.12 -8.88,-0.75 -3.48016,-2.11356 -7.23775,-4.11237 -9.47,-7.88 -1.99,-3.45 -2.73,-6.11 -2.71,-9.75 0.01,-3.31 0.77,-6.35 2.26,-9 1.24,-2.2 3.7,-5 5.46,-6.23 1.77,-1.22 4.74,-2.7 6.6,-3.28 1.87,-0.57 5.24,-0.75 7.5,-0.39 2.26,0.35 5.46,1.58 7.11,2.73 1.65,1.14 3.34,2.66 3.75,3.37 0.55,0.96 2.07,0.17 5.71,-2.95 2.72,-2.33 4.97,-4.81 5,-5.5 0.02,-0.68 -1.78,-2.71 -4.01,-4.5 -2.23,-1.78 -5.94,-4.01 -8.25,-4.94 -2.82,-1.14 -7.18,-1.71 -13.31,-1.75 -8.28,-0.05 -9.65,0.22 -15,3.01 z m 62.6,-2.57 c -0.01,0 -0.12,14.29 -0.25,31.75 l -0.24,31.75 h 45.5 l -0.5,-13.16 -30,-0.34 -0.5,-12.5 h 26 c 0.19,-5.81 0.3,-8.55 0.37,-9.83 0.13,-2.32 0.08,-2.33 -12.87,-2.5 l -13,-0.17 -0.5,-11.5 h 30 c 0,-10.14 0.39,-11.99 1.25,-11.97 0.69,0.02 1.03,-0.22 0.75,-0.52 -0.27,-0.3 -10.74,-0.65 -23.25,-0.78 -12.51,-0.12 -22.75,-0.23 -22.76,-0.23 z m 76.51,2.28 c -3.71,2.02 -5.58,3.88 -7.26,7.22 -1.4,2.8 -2.25,6.3 -2.25,9.25 0.01,2.62 0.46,5.88 1.01,7.25 0.55,1.38 2.01,3.64 3.25,5.02 1.24,1.39 3.94,3.19 6,4 2.06,0.82 5.89,1.94 8.5,2.5 2.61,0.56 6.47,1.79 8.57,2.75 2.42,1.1 3.98,2.56 4.25,3.98 0.24,1.24 0.03,2.82 -0.46,3.5 -0.48,0.69 -2.62,1.87 -4.75,2.62 -3.38,1.21 -4.53,1.16 -9.36,-0.35 -3.34177,-0.48921 -6.90826,-3.40789 -9.27,-5.29 -1.69,-1.64 -2,-1.48 -6.25,3.27 -2.46,2.75 -4.49,5.45 -4.52,6 -0.03,0.55 1.43,2.15 3.25,3.54 1.81,1.4 5.3,3.42 7.76,4.5 3.42,1.51 6.72,1.96 14.1,1.96 6.42,0 10.59667,-0.48333 12.53,-1.45 1.6,-0.8 4.18,-2.6 5.73,-4 1.56,-1.4 3.49,-4.12 4.28,-6.05 0.79,-1.92 1.43,-5.63 1.42,-8.25 -0.02,-2.7 -0.89,-6.47 -2.03,-8.75 -1.29,-2.57 -3.51,-4.85 -6.25,-6.38 -2.34,-1.32 -6.72,-2.95 -9.75,-3.64 -3.02,-0.69 -7.2,-1.97 -9.29,-2.86 -2.08,-0.89 -3.99,-2.18 -4.25,-2.87 -0.25,-0.68 -0.01,-2.15 0.54,-3.25 0.55,-1.1 1.9,-2.45 3,-3 1.1,-0.55 3.46,-1 5.25,-1.01 1.79,0 5.73,1.19 8.75,2.66 l 5.5,2.68 c 3.45,-4.52 5.03,-6.82 5.73,-8.03 1.06,-1.83 1.02,-2.49 -0.23,-3.91 -0.82,-0.94 -3.75,-2.75 -6.5,-4.04 -4.01,-1.87 -6.67,-2.32 -13.5,-2.31 -7.35,0.01 -9.17,0.38 -13.5,2.74 z"
     sodipodi:nodetypes="ccscscccscccsccsscsssccccscccccccsscccccccsscsccsccscscccscsccccccscccccccsssscccccccccccccsccccccccccscccccccccccsccccccccccsccsscscccccccsccsccccccsccccccsccccccccccssccccsccccsscccccccccccccccssscccsccccccccccccscscccscccccsccccccccccccccsccccccccscsccccsscscccsccsccsccccsccsccccssccccssccccccsccccccccccccccsccccssscccccsscccsccccccccccsssccccccccscccccccssccccccccccccccccccccccccssccscccccccsscccccccsccscssssccccssccccccccccccscsscccsccccccccccccccccccccccsssccccsccscscccccscsccssccccccccsccscssccsccccccccccscccccsccsscccscccccccccccccccccccsccccccccscccsccccscccsccscsccccccsccccccccccccccccccccscccccscccssccccccccccccccccccccccccsccccsccccccccccccsscccccccccccccsscccccscssccccccccscccccscccsscsccccccccccccscsscccccccccccccccccscccccccccccccccccccccccscscscccccccccccccccsssscccccccccscccccccscccsccsssccccccccccccccccscscsccccccccccccccccccccccccccccscccssscccscccscccccccccccccccccccccccccscccccccccccccccsccccccscccccccsccssccccccccsscccccccc" />
</svg>
